<svg class="animated" id="freepik_stories-writers-block" xmlns="http://www.w3.org/2000/svg" viewBox="0 0 500 500" version="1.1" xmlns:xlink="http://www.w3.org/1999/xlink" xmlns:svgjs="http://svgjs.com/svgjs"><style>svg#freepik_stories-writers-block:not(.animated) .animable {opacity: 0;}svg#freepik_stories-writers-block.animated #freepik--background-simple--inject-264 {animation: 1s 1 forwards cubic-bezier(.36,-0.01,.5,1.38) slideDown;animation-delay: 0s;}svg#freepik_stories-writers-block.animated #freepik--Shadow--inject-264 {animation: 1s 1 forwards cubic-bezier(.36,-0.01,.5,1.38) lightSpeedRight;animation-delay: 0s;}svg#freepik_stories-writers-block.animated #freepik--Character--inject-264 {animation: 1s 1 forwards cubic-bezier(.36,-0.01,.5,1.38) slideRight,3s Infinite  linear wind;animation-delay: 0s,1s;}svg#freepik_stories-writers-block.animated #freepik--speech-bubble--inject-264 {animation: 1s 1 forwards cubic-bezier(.36,-0.01,.5,1.38) lightSpeedLeft,1.5s Infinite  linear floating;animation-delay: 0s,1s;}svg#freepik_stories-writers-block.animated #freepik--Table--inject-264 {animation: 1s 1 forwards cubic-bezier(.36,-0.01,.5,1.38) slideLeft;animation-delay: 0s;}svg#freepik_stories-writers-block.animated #freepik--Books--inject-264 {animation: 1s 1 forwards cubic-bezier(.36,-0.01,.5,1.38) zoomIn;animation-delay: 0s;}svg#freepik_stories-writers-block.animated #freepik--paper-balls--inject-264 {animation: 1s 1 forwards cubic-bezier(.36,-0.01,.5,1.38) slideLeft;animation-delay: 0s;}svg#freepik_stories-writers-block.animated #freepik--Device--inject-264 {animation: 1s 1 forwards cubic-bezier(.36,-0.01,.5,1.38) zoomOut;animation-delay: 0s;}            @keyframes slideDown {                0% {                    opacity: 0;                    transform: translateY(-30px);                }                100% {                    opacity: 1;                    transform: translateY(0);                }            }                    @keyframes lightSpeedRight {              from {                transform: translate3d(50%, 0, 0) skewX(-20deg);                opacity: 0;              }              60% {                transform: skewX(10deg);                opacity: 1;              }              80% {                transform: skewX(-2deg);              }              to {                opacity: 1;                transform: translate3d(0, 0, 0);              }            }                    @keyframes slideRight {                0% {                    opacity: 0;                    transform: translateX(30px);                }                100% {                    opacity: 1;                    transform: translateX(0);                }            }                    @keyframes wind {                0% {                    transform: rotate( 0deg );                }                25% {                    transform: rotate( 1deg );                }                75% {                    transform: rotate( -1deg );                }            }                    @keyframes lightSpeedLeft {              from {                transform: translate3d(-50%, 0, 0) skewX(20deg);                opacity: 0;              }              60% {                transform: skewX(-10deg);                opacity: 1;              }              80% {                transform: skewX(2deg);              }              to {                opacity: 1;                transform: translate3d(0, 0, 0);              }            }                    @keyframes floating {                0% {                    opacity: 1;                    transform: translateY(0px);                }                50% {                    transform: translateY(-10px);                }                100% {                    opacity: 1;                    transform: translateY(0px);                }            }                    @keyframes slideLeft {                0% {                    opacity: 0;                    transform: translateX(-30px);                }                100% {                    opacity: 1;                    transform: translateX(0);                }            }                    @keyframes zoomIn {                0% {                    opacity: 0;                    transform: scale(0.5);                }                100% {                    opacity: 1;                    transform: scale(1);                }            }                    @keyframes zoomOut {                0% {                    opacity: 0;                    transform: scale(1.5);                }                100% {                    opacity: 1;                    transform: scale(1);                }            }        </style><g id="freepik--background-simple--inject-264" class="animable" style="transform-origin: 267.769px 235.327px;"><path d="M205.81,74c61.11-33.31,140.58,36,147.08,95.68s.34,90.39,39.61,98.67,74.27,39.42,45.35,83.39-100.24,68.76-166,43.38-104.18,27.1-169-36.71C67.55,323.59,98,280.11,129.6,248.79S134.94,112.6,205.81,74Z" style="fill: rgb(64, 123, 255); transform-origin: 267.769px 235.327px;" id="elbjaix0pbsi4" class="animable"></path><g id="elc09mlzytdy"><path d="M205.81,74c61.11-33.31,140.58,36,147.08,95.68s.34,90.39,39.61,98.67,74.27,39.42,45.35,83.39-100.24,68.76-166,43.38-104.18,27.1-169-36.71C67.55,323.59,98,280.11,129.6,248.79S134.94,112.6,205.81,74Z" style="fill: rgb(255, 255, 255); opacity: 0.9; transform-origin: 267.769px 235.327px;" class="animable"></path></g></g><g id="freepik--Shadow--inject-264" class="animable" style="transform-origin: 250px 416.24px;"><ellipse id="freepik--path--inject-264" cx="250" cy="416.24" rx="193.89" ry="11.32" style="fill: rgb(245, 245, 245); transform-origin: 250px 416.24px;" class="animable"></ellipse></g><g id="freepik--Character--inject-264" class="animable" style="transform-origin: 295.638px 265.59px;"><path d="M220.67,245a3.88,3.88,0,0,1-2.32-1.38l-5.15-6.19a4,4,0,0,1-.55-4.29l2.84-6.17a46.07,46.07,0,0,1,11.83-15.63l1.71-1.44a6.68,6.68,0,0,1,9.42.69,2.09,2.09,0,0,1,.14.17l5.24,6.4a6.68,6.68,0,0,1-.24,8.65l-6.4,7.28S229,246.49,220.67,245Z" style="fill: rgb(235, 179, 118); transform-origin: 228.783px 226.696px;" id="elwgsgfhyyn1k" class="animable"></path><path d="M277.15,272.91c-3.12-5.9-8-9.31-14.67-9.56-4.71-.18-8.64,1.94-12.14,5-7,6.15-14.21,12.14-22.27,16.94a62.81,62.81,0,0,1-7.44,3.81c-.51.21-1,.51-1.45.33-1.82-.74-.66-7.51-.12-10.58.87-4.92,3.18-15.31,10.35-34.82l-18.12-9.62A135.43,135.43,0,0,0,194.9,268c-4.3,13.23-4.72,21.73-3.78,28.48,1.34,9.58,5.31,14.54,6.54,16,4.18,4.92,9.65,7.5,15.92,8.43,6,.9,11.87-.19,17.61-1.91,11.56-3.46,21.62-9.66,31-17a138.63,138.63,0,0,0,11-9.66,17.53,17.53,0,0,0,5.41-10.07,3.61,3.61,0,0,1,.19-.64v-3.17A24.21,24.21,0,0,0,277.15,272.91Z" style="fill: rgb(64, 123, 255); transform-origin: 234.748px 277.822px;" id="elk2bha55aaoe" class="animable"></path><g id="eltzin3y8zr8d"><path d="M252.54,272.51a160.73,160.73,0,0,1-18,45.36c1.7-.62,4-1.52,6.68-2.74a93.52,93.52,0,0,0,13.07-7.42,120.82,120.82,0,0,0,11.07-8.22Z" style="opacity: 0.2; transform-origin: 249.95px 295.19px;" class="animable"></path></g><g id="el0n942ay503e"><path d="M223.28,215.21a33.92,33.92,0,0,0,2.27,8.39,34.76,34.76,0,0,0,9.28,12.79c.76-1.07,1.56-2.16,2.43-3.26,1.74-2.24,3.5-4.27,5.21-6.1l-12.39-17.92a48.2,48.2,0,0,0-4.52,3.77C224.73,213.67,224,214.45,223.28,215.21Z" style="opacity: 0.2; transform-origin: 232.875px 222.75px;" class="animable"></path></g><path d="M398.35,385c-13-32.41-21.14-54.89-30.43-114.88-2.29-14.75-16-24.4-30.07-23.15-4,.36-17.36-1.3-40.57,4.28-16.95,4.08-46.73,17.34-46.73,17.34S263,330.28,299.71,385Z" style="fill: rgb(64, 123, 255); transform-origin: 324.45px 315.931px;" id="elv5hcb7ayd6r" class="animable"></path><g id="elvzxk22sisjs"><path d="M398.35,385c-13-32.41-21.14-54.89-30.43-114.88-2.29-14.75-16-24.4-30.07-23.15-4,.36-17.36-1.3-40.57,4.28-16.95,4.08-46.73,17.34-46.73,17.34S263,330.28,299.71,385Z" style="fill: rgb(255, 255, 255); opacity: 0.7; transform-origin: 324.45px 315.931px;" class="animable"></path></g><path d="M333.84,332.74c3.74,9.05,9.62,20.18,15.55,30.62,4.56,8,9.15,15.64,12.82,21.6h38.36l-14.7-35.16-2.14-5.1L381,330.6l-12.31-63.26c-2.49-12.8-14.76-22.8-27-22l-16.6,1.06-.15.72c-1.17,5.68-8.07,44.07,8.78,85.25Z" style="fill: rgb(64, 123, 255); transform-origin: 361.562px 315.128px;" id="ely012rf0vjy8" class="animable"></path><path d="M285.74,368.92c4.26,9.29,7.14,15.3,7.14,15.3s0,.26-.12.74h14.79a136.28,136.28,0,0,0-1.19-16.26,219.87,219.87,0,0,0-6.58-31.62c-1-3.63-2.14-7.15-3.3-10.45-9.67-27.52-14.51-67.26-14.91-70.55,0-.15,0-.22,0-.22s-30.19,8.79-31,12.68c-2.15,10.37,10.31,43.14,22.26,71.18C277.5,350.74,282.12,361,285.74,368.92Z" style="fill: rgb(64, 123, 255); transform-origin: 278.938px 320.41px;" id="el8hfioyiwsde" class="animable"></path><path d="M281.81,251.73c4.42,4.81,6.16,8.48,6.67,11.14.75,3.9-1.13,5.65-1.13,5.65,2.34,9.56,15.24,7.63,15.24,7.63C317.08,259.43,315.75,248,315.75,248c-9.23-.22-15.53-6.09-19.59-12.11A48.73,48.73,0,0,1,290,222.83l-16.4,21.28A77.65,77.65,0,0,1,281.81,251.73Z" style="fill: rgb(235, 179, 118); transform-origin: 294.691px 249.57px;" id="el2qiddau562z" class="animable"></path><g id="elwchfbe88gk"><path d="M273.63,244.11a77.65,77.65,0,0,1,8.18,7.62c4.42,4.81,6.16,8.48,6.67,11.14,7.07-8.37,8.35-18.49,7.68-27A48.73,48.73,0,0,1,290,222.83Z" style="opacity: 0.2; transform-origin: 284.973px 242.85px;" class="animable"></path></g><path d="M278.7,166.93c0-2.29.38-8.87,5.18-14.14,6.21-6.82,16.85-8.13,24.06-5,9.14,3.93,7.09,12.5,19.23,31,9.55,14.52,13.94,14,17.13,24.18.88,2.8,6.16,19.74-3.92,30.83-5.51,6.06-13.05,7.47-16.46,7.88,1.66-3,3.43-7.4,2.45-12.14-1.23-5.94-6.07-8.91-9.65-12-16.34-14.06-9-32.67-25.28-44.78A34.45,34.45,0,0,0,278.7,166.93Z" style="fill: rgb(38, 50, 56); transform-origin: 312.583px 193.93px;" id="elzj0g6csqvtq" class="animable"></path><path d="M233.56,225c-1.42-2-12.7-18.54-6.47-36.84,4.27-12.58,14.49-19.17,18.52-21.76s11.7-7.62,21.08-7.56c23.82.15,41.92,29.14,40.87,46.61-.57,9.62-2.95,21.52-11.5,28.13-3.43,2.65-4.76-7.65-4.76-7.65S258.08,241.47,233.56,225Z" style="fill: rgb(38, 50, 56); transform-origin: 266.416px 196.428px;" id="eloqvdycwfbf" class="animable"></path><path d="M289.67,188.33c6.64,22.13,9.9,31.33,3.39,46.95-9.79,23.5-37.55,28.09-50.45,8.71-11.61-17.45-20.5-50.71-3.16-68.1C256.53,158.74,283,166.21,289.67,188.33Z" style="fill: rgb(235, 179, 118); transform-origin: 263.163px 211.278px;" id="elfktytzba98" class="animable"></path><path d="M264.39,189.57c17.34,9.07,2.37,35.5,24.32,24.3s-1.62-38.63-18.2-39.72S264.39,189.57,264.39,189.57Z" style="fill: rgb(38, 50, 56); transform-origin: 279.369px 195.344px;" id="el7eo9lhn74u" class="animable"></path><path d="M259.3,207.8c.69,1.81.34,3.7-.78,4.22s-2.58-.53-3.27-2.35-.35-3.7.77-4.22S258.61,206,259.3,207.8Z" style="fill: rgb(38, 50, 56); transform-origin: 257.274px 208.736px;" id="eluoi7zkrmzr" class="animable"></path><path d="M238.36,217.86c.7,1.82.35,3.71-.77,4.22s-2.59-.53-3.28-2.34-.34-3.7.78-4.22S237.67,216.05,238.36,217.86Z" style="fill: rgb(38, 50, 56); transform-origin: 236.339px 218.798px;" id="elieo0bnjxpwb" class="animable"></path><path d="M235.62,215.39,231,216S234.44,218.46,235.62,215.39Z" style="fill: rgb(38, 50, 56); transform-origin: 233.31px 216.161px;" id="elmw4muimhpw" class="animable"></path><path d="M245.23,218.1s-.2,9.15-2.12,14.34c3.08,1.28,6.61-1.41,6.61-1.41Z" style="fill: rgb(213, 135, 69); transform-origin: 246.415px 225.443px;" id="el2ojer59rqdf" class="animable"></path><path d="M264.89,231.66a17.83,17.83,0,0,1,3.12-.72.51.51,0,0,1,.59.49.62.62,0,0,1-.51.65,16.07,16.07,0,0,0-11.64,7.68.57.57,0,0,1-.75.28.56.56,0,0,1-.22-.76A16.91,16.91,0,0,1,264.89,231.66Z" style="fill: rgb(38, 50, 56); transform-origin: 262.006px 235.512px;" id="elfdov48hu0er" class="animable"></path><path d="M301.68,206.77A15.85,15.85,0,0,1,297,218.71c-4.05,3.67-8.87-.65-10.08-6.84-1.09-5.56-.3-14.17,4.89-15.37S301.6,200.82,301.68,206.77Z" style="fill: rgb(235, 179, 118); transform-origin: 294.094px 208.197px;" id="el8ar7jy08xvw" class="animable"></path><path d="M227.27,210.5a1,1,0,0,1,.67-.53,8.29,8.29,0,0,0,6-5.08,1,1,0,0,1,1.38-.67,1.23,1.23,0,0,1,.7,1.49,10.36,10.36,0,0,1-7.52,6.52,1.17,1.17,0,0,1-1.34-.89A1.2,1.2,0,0,1,227.27,210.5Z" style="fill: rgb(38, 50, 56); transform-origin: 231.601px 208.19px;" id="el74ipn2wiyd6" class="animable"></path><path d="M258.17,197.25a1.11,1.11,0,0,1,.61.54,1.12,1.12,0,0,1-.6,1.47,11.84,11.84,0,0,1-10.52.09,1,1,0,0,1-.33-1.49,1.24,1.24,0,0,1,1.6-.4,9.44,9.44,0,0,0,8.33-.16A1.31,1.31,0,0,1,258.17,197.25Z" style="fill: rgb(38, 50, 56); transform-origin: 252.997px 198.865px;" id="els0dkc1bnhhi" class="animable"></path><path d="M256.55,205.33,252,206S255.37,208.4,256.55,205.33Z" style="fill: rgb(38, 50, 56); transform-origin: 254.275px 206.111px;" id="elv9xw96jwtn" class="animable"></path><path d="M246.37,183.22c12.55,12.19,25.95,17.21,32.85,16.51a31.82,31.82,0,0,0,9.45-2.38c2.74-1.3,6.76-3.86,6.76-3.86a34.64,34.64,0,0,0-4.14-10.92,37.1,37.1,0,0,0-18.66-15.38c-3.1-1.18-12.73-4.3-22.47-1.21-13.9,4.4-23.91,20.14-24.29,39.11a27.87,27.87,0,0,1,2.65-1.88,28.59,28.59,0,0,1,8.63-3.6,23.85,23.85,0,0,1,1.62-6.33A24.92,24.92,0,0,1,246.37,183.22Z" style="fill: rgb(38, 50, 56); transform-origin: 260.65px 184.872px;" id="el4cx16d9tvcu" class="animable"></path><path d="M275.1,200.82a2.1,2.1,0,0,1-2,1.79,4.26,4.26,0,0,1-3.72-1.81,2.07,2.07,0,0,1-.07-2.29l.92-1.49.09-.14q3.12-4.33,4.38-3.84C275.68,193.42,275.82,196,275.1,200.82Z" style="fill: rgb(64, 123, 255); transform-origin: 272.276px 197.803px;" id="elz359f5vkbx8" class="animable"></path><g id="el94u7lrerm7"><path d="M274.44,200.13a1.56,1.56,0,0,1-1.47,1.33,3.16,3.16,0,0,1-1.57-.33,3.12,3.12,0,0,1-1.17-1,1.53,1.53,0,0,1-.05-1.69l.67-1.1a.61.61,0,0,0,.07-.1q2.29-3.19,3.23-2.83C274.88,194.68,275,196.59,274.44,200.13Z" style="fill: rgb(255, 255, 255); opacity: 0.7; transform-origin: 272.37px 197.919px;" class="animable"></path></g><g id="elj8ebjb3g9z"><path d="M273.49,225.91a50.32,50.32,0,0,1,.09-23.3c.48,2.43.95,4.86,1.43,7.29l21.31,5q2.22-6.27,4.43-12.55a13.92,13.92,0,0,1,.58,2c.07.32,1.55,7.54-3.07,13.09A13.59,13.59,0,0,1,296.6,219q0,.94-.09,1.92c-.13,2.12-.35,4.14-.64,6Z" style="opacity: 0.2; transform-origin: 286.889px 214.635px;" class="animable"></path></g><path d="M278.44,225.8a4.27,4.27,0,0,0,2.77.9l8.7-.24a4.3,4.3,0,0,0,3.87-2.6l3-6.71A49.7,49.7,0,0,0,301,196.41l0-2.42a7.22,7.22,0,0,0-7.27-7.16h-.24l-8.92.31a7.21,7.21,0,0,0-6.86,6.35l-1.36,10.39S271.23,220.11,278.44,225.8Z" style="fill: rgb(235, 179, 118); transform-origin: 287.796px 206.766px;" id="elklo9lhl4y8n" class="animable"></path><g id="elq5j7lebbdsk"><path d="M355.63,249.57a15.83,15.83,0,0,1,3,2c6.7,5.6,6.4,15,6.38,15.58-.38,8.23-6.78,13.59-12.19,18.12a57.89,57.89,0,0,1-28.54,12.53Q339.95,273.67,355.63,249.57Z" style="opacity: 0.2; transform-origin: 344.649px 273.685px;" class="animable"></path></g><g id="elmloo3ggj19"><path d="M289.36,302a26.27,26.27,0,0,1-12-5.75c-5.52-4.76-7.3-10.62-8.81-15.57a48.49,48.49,0,0,1-1.64-20.09l6.77-2.27Z" style="opacity: 0.2; transform-origin: 277.937px 280.16px;" class="animable"></path></g><path d="M355.94,249.81c-5-4-10.88-3.53-13-3.35-8.66.7-15.23,6.48-21.86,12.37-3.25,2.89-6.71,5.56-9.9,8.53a25.58,25.58,0,0,1-10.26,5.49,1.8,1.8,0,0,1-.66,0,1.31,1.31,0,0,1-.47-.16,1.48,1.48,0,0,1-.74-.92c-.73-2.57-1.36-5.2-1.86-7.83-1.6-8.39-1.62-15.17-1.65-23,0-5.39.15-10.88.51-16.31l0-.48L274.17,222l-.09.44a237,237,0,0,0-4.43,40c-.13,6.58,0,14.33,3.65,23a29.76,29.76,0,0,0,5.2,9.05,28.16,28.16,0,0,0,21.35,9.3,31.39,31.39,0,0,0,4.28-.29c13.82-1.77,25.74-8.19,30.1-10.69,14.72-8.43,21.21-16.67,23.17-19.3,2.67-3.58,4.48-6.89,4.54-11C362,254.85,356.18,250,355.94,249.81Z" style="fill: rgb(64, 123, 255); transform-origin: 315.78px 262.897px;" id="el8pkikz5r736" class="animable"></path></g><g id="freepik--speech-bubble--inject-264" class="animable animator-active" style="transform-origin: 351.075px 103.475px;"><g id="freepik--bBaloon--inject-264" class="animable" style="transform-origin: 351.075px 103.475px;"><path d="M408.23,107.27c0-5.17-2.69-9.83-7-13.19a10.07,10.07,0,0,0,.22-2.06c0-6.89-7-12.48-15.69-12.64-2.63-6.65-10.52-11.48-19.84-11.48-7.43,0-13.95,3.07-17.62,7.69a19.88,19.88,0,0,0-2.81-.2c-8.87,0-16.07,5.66-16.07,12.64a10.2,10.2,0,0,0,.62,3.48c-5.65,3-9.38,8-9.38,13.78,0,5.53,3.46,10.43,8.77,13.44a1.09,1.09,0,0,0,0,.18c0,6.77,6.78,12.3,15.29,12.62,4.7,4.59,11.89,7.52,20,7.52a30.45,30.45,0,0,0,15.14-3.89c.71.07,1.44.12,2.18.12,8.88,0,16.07-5.66,16.07-12.64v-.13C404.19,119.18,408.23,113.59,408.23,107.27Z" style="fill: rgb(64, 123, 255); transform-origin: 364.445px 103.475px;" id="el65u9m373p23" class="animable"></path><path d="M301.92,123.05c0,1.53-1.77,2.77-4,2.77s-4-1.24-4-2.77,1.77-2.77,4-2.77S301.92,121.52,301.92,123.05Z" style="fill: rgb(64, 123, 255); transform-origin: 297.92px 123.05px;" id="elneua54v4vg" class="animable"></path><path d="M315.47,112.93c0,2.33-2.71,4.22-6.06,4.22s-6.06-1.89-6.06-4.22,2.72-4.22,6.06-4.22S315.47,110.6,315.47,112.93Z" style="fill: rgb(64, 123, 255); transform-origin: 309.41px 112.93px;" id="el68we9ojrsu8" class="animable"></path><g id="el3nhniobeewn"><path d="M408.23,107.27c0-5.17-2.69-9.83-7-13.19a10.07,10.07,0,0,0,.22-2.06c0-6.89-7-12.48-15.69-12.64-2.63-6.65-10.52-11.48-19.84-11.48-7.43,0-13.95,3.07-17.62,7.69a19.88,19.88,0,0,0-2.81-.2c-8.87,0-16.07,5.66-16.07,12.64a10.2,10.2,0,0,0,.62,3.48c-5.65,3-9.38,8-9.38,13.78,0,5.53,3.46,10.43,8.77,13.44a1.09,1.09,0,0,0,0,.18c0,6.77,6.78,12.3,15.29,12.62,4.7,4.59,11.89,7.52,20,7.52a30.45,30.45,0,0,0,15.14-3.89c.71.07,1.44.12,2.18.12,8.88,0,16.07-5.66,16.07-12.64v-.13C404.19,119.18,408.23,113.59,408.23,107.27Z" style="fill: rgb(255, 255, 255); isolation: isolate; opacity: 0.6; transform-origin: 364.445px 103.475px;" class="animable"></path></g><g id="elpf9g5zf5b8"><path d="M301.92,123.05c0,1.53-1.77,2.77-4,2.77s-4-1.24-4-2.77,1.77-2.77,4-2.77S301.92,121.52,301.92,123.05Z" style="fill: rgb(255, 255, 255); isolation: isolate; opacity: 0.6; transform-origin: 297.92px 123.05px;" class="animable"></path></g><g id="elfv3oyxj266w"><path d="M315.47,112.93c0,2.33-2.71,4.22-6.06,4.22s-6.06-1.89-6.06-4.22,2.72-4.22,6.06-4.22S315.47,110.6,315.47,112.93Z" style="fill: rgb(255, 255, 255); isolation: isolate; opacity: 0.6; transform-origin: 309.41px 112.93px;" class="animable"></path></g></g><g id="freepik--Block--inject-264" class="animable" style="transform-origin: 364.445px 103.355px;"><rect x="337.43" y="89.87" width="16.3" height="7.82" style="fill: rgb(64, 123, 255); transform-origin: 345.58px 93.78px;" id="elhplc4rvoerm" class="animable"></rect><g id="elr02jnw6xn"><rect x="337.43" y="89.87" width="16.3" height="7.82" style="fill: rgb(255, 255, 255); isolation: isolate; opacity: 0.8; transform-origin: 345.58px 93.78px;" class="animable"></rect></g><rect x="355.68" y="89.87" width="16.3" height="7.82" style="fill: rgb(64, 123, 255); transform-origin: 363.83px 93.78px;" id="eliag5itwse9" class="animable"></rect><g id="el9r81xvce8e"><rect x="355.68" y="89.87" width="16.3" height="7.82" style="fill: rgb(255, 255, 255); isolation: isolate; opacity: 0.8; transform-origin: 363.83px 93.78px;" class="animable"></rect></g><rect x="373.94" y="89.87" width="16.3" height="7.82" style="fill: rgb(64, 123, 255); transform-origin: 382.09px 93.78px;" id="el98el5vxxeha" class="animable"></rect><g id="els0yks1ho95d"><rect x="373.94" y="89.87" width="16.3" height="7.82" style="fill: rgb(255, 255, 255); isolation: isolate; opacity: 0.8; transform-origin: 382.09px 93.78px;" class="animable"></rect></g><rect x="328.87" y="99.21" width="16.3" height="7.82" style="fill: rgb(64, 123, 255); transform-origin: 337.02px 103.12px;" id="el3nu6u1y84dc" class="animable"></rect><g id="els8mhugu3cr"><rect x="328.87" y="99.21" width="16.3" height="7.82" style="fill: rgb(255, 255, 255); isolation: isolate; opacity: 0.8; transform-origin: 337.02px 103.12px;" class="animable"></rect></g><rect x="347.11" y="99.21" width="16.3" height="7.82" style="fill: rgb(64, 123, 255); transform-origin: 355.26px 103.12px;" id="elnp1b03sdjz" class="animable"></rect><g id="elzge7v503639"><rect x="347.11" y="99.21" width="16.3" height="7.82" style="fill: rgb(255, 255, 255); isolation: isolate; opacity: 0.8; transform-origin: 355.26px 103.12px;" class="animable"></rect></g><rect x="365.38" y="99.21" width="16.3" height="7.82" style="fill: rgb(64, 123, 255); transform-origin: 373.53px 103.12px;" id="ellznjc88qfl8" class="animable"></rect><g id="el9ky3nbbxqy"><rect x="365.38" y="99.21" width="16.3" height="7.82" style="fill: rgb(255, 255, 255); isolation: isolate; opacity: 0.8; transform-origin: 373.53px 103.12px;" class="animable"></rect></g><rect x="383.72" y="99.21" width="16.3" height="7.82" style="fill: rgb(64, 123, 255); transform-origin: 391.87px 103.12px;" id="eld4tygf7x5mg" class="animable"></rect><g id="el40u1428i5wh"><rect x="383.72" y="99.21" width="16.3" height="7.82" style="fill: rgb(255, 255, 255); isolation: isolate; opacity: 0.8; transform-origin: 391.87px 103.12px;" class="animable"></rect></g><rect x="337.43" y="109.02" width="16.3" height="7.82" style="fill: rgb(64, 123, 255); transform-origin: 345.58px 112.93px;" id="elcbx5b4h5ii6" class="animable"></rect><g id="el5ohrsi5hhbm"><rect x="337.43" y="109.02" width="16.3" height="7.82" style="fill: rgb(255, 255, 255); isolation: isolate; opacity: 0.8; transform-origin: 345.58px 112.93px;" class="animable"></rect></g><rect x="355.68" y="109.02" width="16.3" height="7.82" style="fill: rgb(64, 123, 255); transform-origin: 363.83px 112.93px;" id="elvxxk0eaed6e" class="animable"></rect><g id="elrt5v1f6ethh"><rect x="355.68" y="109.02" width="16.3" height="7.82" style="fill: rgb(255, 255, 255); isolation: isolate; opacity: 0.8; transform-origin: 363.83px 112.93px;" class="animable"></rect></g><rect x="373.94" y="109.02" width="16.3" height="7.82" style="fill: rgb(64, 123, 255); transform-origin: 382.09px 112.93px;" id="elp2mz4lyqkme" class="animable"></rect><g id="el5p52xnmtwws"><rect x="373.94" y="109.02" width="16.3" height="7.82" style="fill: rgb(255, 255, 255); isolation: isolate; opacity: 0.8; transform-origin: 382.09px 112.93px;" class="animable"></rect></g><rect x="346.13" y="80.53" width="16.3" height="7.82" style="fill: rgb(64, 123, 255); transform-origin: 354.28px 84.44px;" id="elmvzchbyo3en" class="animable"></rect><g id="el4s1d7g7ouah"><rect x="346.13" y="80.53" width="16.3" height="7.82" style="fill: rgb(255, 255, 255); isolation: isolate; opacity: 0.8; transform-origin: 354.28px 84.44px;" class="animable"></rect></g><rect x="364.4" y="80.53" width="16.3" height="7.82" style="fill: rgb(64, 123, 255); transform-origin: 372.55px 84.44px;" id="el6dolo5l8nji" class="animable"></rect><g id="eldvcy7poguzr"><rect x="364.4" y="80.53" width="16.3" height="7.82" style="fill: rgb(255, 255, 255); isolation: isolate; opacity: 0.8; transform-origin: 372.55px 84.44px;" class="animable"></rect></g><rect x="347.11" y="118.36" width="16.3" height="7.82" style="fill: rgb(64, 123, 255); transform-origin: 355.26px 122.27px;" id="el8rtc4h7j4ud" class="animable"></rect><g id="elxrpoksxum6"><rect x="347.11" y="118.36" width="16.3" height="7.82" style="fill: rgb(255, 255, 255); isolation: isolate; opacity: 0.8; transform-origin: 355.26px 122.27px;" class="animable"></rect></g><rect x="365.38" y="118.36" width="16.3" height="7.82" style="fill: rgb(64, 123, 255); transform-origin: 373.53px 122.27px;" id="elu4vmezlhc2d" class="animable"></rect><g id="elpo37oi6nfxf"><rect x="365.38" y="118.36" width="16.3" height="7.82" style="fill: rgb(255, 255, 255); isolation: isolate; opacity: 0.8; transform-origin: 373.53px 122.27px;" class="animable"></rect></g></g><g id="freepik----inject-264" class="animable" style="transform-origin: 362.348px 105.135px;"><path d="M369.44,96.2c-.08-3.17-2.8-5.28-7.07-5.21-4.1.06-7.05,1.68-8.91,4.48L348,92c3-4.34,7.9-7,14.83-7.12,8.14-.11,13.68,3.6,13.86,10.09.26,9.22-9.19,10.2-9,16.87l-7,.1C360.39,103.57,369.6,101.85,369.44,96.2ZM360,121.05a4.23,4.23,0,0,1,4.32-4.42,4.34,4.34,0,0,1,4.5,4.29,4.26,4.26,0,0,1-4.26,4.47A4.4,4.4,0,0,1,360,121.05Z" style="fill: rgb(64, 123, 255); transform-origin: 362.348px 105.135px;" id="elwylm71w7qf" class="animable"></path></g></g><g id="freepik--Table--inject-264" class="animable" style="transform-origin: 250.73px 400.39px;"><g id="freepik--table--inject-264" class="animable" style="transform-origin: 250.73px 400.39px;"><rect x="70.65" y="392.63" width="360.17" height="23.28" style="fill: rgb(38, 50, 56); transform-origin: 250.735px 404.27px;" id="eluujb0axfjp" class="animable"></rect><g id="elbgdanaqu3fq"><rect x="70.65" y="392.63" width="360.17" height="23.28" style="fill: rgb(255, 255, 255); opacity: 0.3; transform-origin: 250.735px 404.27px;" class="animable"></rect></g><rect x="65.59" y="384.87" width="370.28" height="15.52" rx="3.71" style="fill: rgb(38, 50, 56); transform-origin: 250.73px 392.63px;" id="elxmpzfb98fgk" class="animable"></rect><g id="ellg4n9u8hwr"><rect x="65.59" y="384.87" width="370.28" height="15.52" rx="3.71" style="fill: rgb(255, 255, 255); opacity: 0.4; transform-origin: 250.73px 392.63px;" class="animable"></rect></g></g></g><g id="freepik--Books--inject-264" class="animable" style="transform-origin: 124.085px 358.47px;"><g id="freepik--Book--inject-264" class="animable" style="transform-origin: 124.085px 358.47px;"><rect x="89.06" y="367.79" width="70.81" height="15.01" style="fill: rgb(38, 50, 56); transform-origin: 124.465px 375.295px;" id="ela062b11gyyh" class="animable"></rect><g id="elry5tcrgdgdc"><rect x="89.06" y="367.79" width="70.81" height="15.01" style="fill: rgb(255, 255, 255); opacity: 0.8; transform-origin: 124.465px 375.295px;" class="animable"></rect></g><g id="elzltrzare1pk"><rect x="89.06" y="370.74" width="69.81" height="0.68" style="fill: rgb(255, 255, 255); opacity: 0.5; transform-origin: 123.965px 371.08px;" class="animable"></rect></g><g id="elt5evjqnu5sf"><rect x="89.06" y="374.61" width="69.81" height="0.68" style="fill: rgb(255, 255, 255); opacity: 0.5; transform-origin: 123.965px 374.95px;" class="animable"></rect></g><g id="elgy55ispf6uj"><rect x="89.06" y="378.66" width="69.81" height="0.68" style="fill: rgb(255, 255, 255); opacity: 0.5; transform-origin: 123.965px 379px;" class="animable"></rect></g><path d="M159.27,365.72H87.42a.61.61,0,0,0-.62.61v1.89a.62.62,0,0,0,.62.62h68.69a1.23,1.23,0,0,1,1.23,1.23v10.66a1.23,1.23,0,0,1-1.23,1.23H87.34a.54.54,0,0,0-.54.54v1.83a.54.54,0,0,0,.54.54h72a2,2,0,0,0,2-2v-15h0A2.1,2.1,0,0,0,159.27,365.72Z" style="fill: rgb(64, 123, 255); transform-origin: 124.07px 375.295px;" id="elwr15p63vai" class="animable"></path><rect x="89.06" y="348.58" width="70.81" height="15.01" style="fill: rgb(38, 50, 56); transform-origin: 124.465px 356.085px;" id="el1yi5kxa3ows" class="animable"></rect><g id="elmjbbkpx69x"><rect x="89.06" y="348.58" width="70.81" height="15.01" style="fill: rgb(255, 255, 255); opacity: 0.9; transform-origin: 124.465px 356.085px;" class="animable"></rect></g><g id="el1zqw7aemt2p"><rect x="89.06" y="350.91" width="69.81" height="0.68" style="fill: rgb(255, 255, 255); opacity: 0.7; transform-origin: 123.965px 351.25px;" class="animable"></rect></g><g id="elncs5svadlrg"><rect x="89.06" y="353.68" width="69.81" height="0.68" style="fill: rgb(255, 255, 255); opacity: 0.7; transform-origin: 123.965px 354.02px;" class="animable"></rect></g><g id="elo5u39lsud1p"><rect x="89.06" y="356.74" width="69.81" height="0.68" style="fill: rgb(255, 255, 255); opacity: 0.7; transform-origin: 123.965px 357.08px;" class="animable"></rect></g><g id="el66l8snssh4"><rect x="89.06" y="359.51" width="69.81" height="0.68" style="fill: rgb(255, 255, 255); opacity: 0.7; transform-origin: 123.965px 359.85px;" class="animable"></rect></g><path d="M159.27,346.51H87.42a.62.62,0,0,0-.62.62V349a.61.61,0,0,0,.62.61h68.69a1.23,1.23,0,0,1,1.23,1.23v10.67a1.23,1.23,0,0,1-1.23,1.23H87.34a.54.54,0,0,0-.54.54v1.82a.54.54,0,0,0,.54.54h72a2,2,0,0,0,2-2v-15h0A2.11,2.11,0,0,0,159.27,346.51Z" style="fill: rgb(64, 123, 255); transform-origin: 124.07px 356.075px;" id="elq1bkycsbepr" class="animable"></path><g id="el5vnqxnxxr0h"><path d="M159.27,346.51H87.42a.62.62,0,0,0-.62.62V349a.61.61,0,0,0,.62.61h68.69a1.23,1.23,0,0,1,1.23,1.23v10.67a1.23,1.23,0,0,1-1.23,1.23H87.34a.54.54,0,0,0-.54.54v1.82a.54.54,0,0,0,.54.54h72a2,2,0,0,0,2-2v-15h0A2.11,2.11,0,0,0,159.27,346.51Z" style="fill: rgb(255, 255, 255); opacity: 0.3; transform-origin: 124.07px 356.075px;" class="animable"></path></g><rect x="89.06" y="335" width="70.81" height="9.44" style="fill: rgb(38, 50, 56); transform-origin: 124.465px 339.72px;" id="elkv33hjqes7" class="animable"></rect><g id="el7zriqjx5i2n"><rect x="89.06" y="335" width="70.81" height="9.44" style="fill: rgb(255, 255, 255); opacity: 0.8; transform-origin: 124.465px 339.72px;" class="animable"></rect></g><g id="eln8027qmek5a"><rect x="89.06" y="337" width="69.81" height="0.68" style="fill: rgb(255, 255, 255); opacity: 0.5; transform-origin: 123.965px 337.34px;" class="animable"></rect></g><g id="elh45x8rmarzv"><rect x="89.06" y="340.91" width="69.81" height="0.68" style="fill: rgb(255, 255, 255); opacity: 0.5; transform-origin: 123.965px 341.25px;" class="animable"></rect></g><path d="M86.8,332.43v2.38a.36.36,0,0,0,.37.37H157a.37.37,0,0,1,.37.37v7.07a1,1,0,0,1-1,1H87.17a.36.36,0,0,0-.37.36v2.18a.36.36,0,0,0,.37.36h72.42a1.78,1.78,0,0,0,1.78-1.78v-12.3a.37.37,0,0,0-.36-.37H87.17A.37.37,0,0,0,86.8,332.43Z" style="fill: rgb(64, 123, 255); transform-origin: 124.085px 339.295px;" id="el2zh4nosdjy4" class="animable"></path></g></g><g id="freepik--paper-balls--inject-264" class="animable" style="transform-origin: 376.06px 371.12px;"><g id="freepik--paper-trash--inject-264" class="animable" style="transform-origin: 376.06px 371.12px;"><path d="M348.22,372.27q2.07-4.25,4.15-8.48a48.53,48.53,0,0,0-13.65-3.62l-.13,4.38,2,.85-.72,5.15,4.26,0Z" style="fill: rgb(38, 50, 56); transform-origin: 345.48px 366.22px;" id="ela63vdmnr6fb" class="animable"></path><path d="M338.59,364.55l1.67,2.91c.09-.68.19-1.37.28-2.06Z" style="fill: rgb(38, 50, 56); transform-origin: 339.565px 366.005px;" id="elrnanrtn1ukl" class="animable"></path><path d="M339.82,370.55l7.47,8.46.93-6.74-4.14-1.68Z" style="fill: rgb(38, 50, 56); transform-origin: 344.02px 374.78px;" id="elchfhb6529pq" class="animable"></path><path d="M347.29,379l4.44-1.07-3.51-5.67Z" style="fill: rgb(38, 50, 56); transform-origin: 349.51px 375.63px;" id="elec1l40ayvo" class="animable"></path><path d="M352.37,363.79l6.85,3.81-4.64,6.56-6.36-1.89Q350.29,368,352.37,363.79Z" style="fill: rgb(38, 50, 56); transform-origin: 353.72px 368.975px;" id="eld2d1f1xqird" class="animable"></path><path d="M347.29,379l3.32,3.67,3.18.94c-.69-1.9-1.37-3.79-2.06-5.68Z" style="fill: rgb(38, 50, 56); transform-origin: 350.54px 380.77px;" id="elgx3idwhwvi6" class="animable"></path><path d="M353.79,383.62l1.58-2L353.66,377l-1.93,1C352.42,379.83,353.1,381.72,353.79,383.62Z" style="fill: rgb(38, 50, 56); transform-origin: 353.55px 380.31px;" id="elayol01uxmue" class="animable"></path><path d="M353.66,377l-5.44-4.71,3.51,5.67Z" style="fill: rgb(38, 50, 56); transform-origin: 350.94px 375.125px;" id="el1ljzkusei8o" class="animable"></path><path d="M354.58,374.16c.75,1.69,1.49,3.39,2.23,5.08L353.66,377l-5.44-4.71Z" style="fill: rgb(38, 50, 56); transform-origin: 352.515px 375.765px;" id="elphnf59tjr19" class="animable"></path><path d="M356.81,379.24l7.56-2.9-2.72-6.72.39-3.3-2.82,1.28-4.64,6.56C355.33,375.85,356.07,377.55,356.81,379.24Z" style="fill: rgb(38, 50, 56); transform-origin: 359.475px 372.78px;" id="el7azl4mrr6tr" class="animable"></path><path d="M345.54,361.45l3-2.3,4.59-2.15,4.52,5.64-5.31,1.15c-.93-.4-1.93-.79-3-1.17Q347.35,361.92,345.54,361.45Z" style="fill: rgb(38, 50, 56); transform-origin: 351.595px 360.395px;" id="elxxiitdruh79" class="animable"></path><path d="M357.68,362.64l4.36,3.68-2.86,1.29-6.81-3.82Z" style="fill: rgb(38, 50, 56); transform-origin: 357.205px 365.125px;" id="elj14z529a9nn" class="animable"></path><path d="M355.37,381.66l5.46,3.5c-.42-1.3-.83-2.61-1.24-3.91L353.66,377Z" style="fill: rgb(38, 50, 56); transform-origin: 357.245px 381.08px;" id="el8oqs7f072bh" class="animable"></path><path d="M360.83,385.16l3.15-6.54.39-2.28-7.56,2.9,2.78,2C360,382.55,360.41,383.86,360.83,385.16Z" style="fill: rgb(38, 50, 56); transform-origin: 360.59px 380.75px;" id="elgiz1ng9lmqc" class="animable"></path><path d="M339.82,370.55l-1.83.83,2.48,2.37,4.12,10.43,2.7-5.17Z" style="fill: rgb(38, 50, 56); transform-origin: 342.64px 377.365px;" id="el8q6pci6axka" class="animable"></path><path d="M344.59,384.18l3.78,1.06,5.42-1.62-3.18-.94L347.29,379Z" style="fill: rgb(38, 50, 56); transform-origin: 349.19px 382.12px;" id="elpeiktdtkck8" class="animable"></path><path d="M338,371.38a12.06,12.06,0,0,0-1.37,2.79,12.56,12.56,0,0,0-.65,3.5l7.12,2.67c-.87-2.2-1.75-4.39-2.62-6.59Z" style="fill: rgb(38, 50, 56); transform-origin: 339.54px 375.86px;" id="elikz8b3772" class="animable"></path><g id="ela5rzrfc7lae"><path d="M348.22,372.27q2.07-4.25,4.15-8.48a48.53,48.53,0,0,0-13.65-3.62l-.13,4.38,2,.85-.72,5.15,4.26,0Z" style="fill: rgb(255, 255, 255); opacity: 0.9; transform-origin: 345.48px 366.22px;" class="animable"></path></g><g id="elaiainyuukq9"><path d="M338.59,364.55l1.67,2.91c.09-.68.19-1.37.28-2.06Z" style="fill: rgb(255, 255, 255); opacity: 0.8; transform-origin: 339.565px 366.005px;" class="animable"></path></g><g id="elinr10sno3pj"><path d="M339.82,370.55l7.47,8.46.93-6.74-4.14-1.68Z" style="fill: rgb(255, 255, 255); opacity: 0.8; transform-origin: 344.02px 374.78px;" class="animable"></path></g><g id="elq90f1hokeq"><path d="M347.29,379l4.44-1.07-3.51-5.67Z" style="fill: rgb(255, 255, 255); opacity: 0.9; transform-origin: 349.51px 375.63px;" class="animable"></path></g><g id="elosbc16ygm9g"><path d="M352.37,363.79l6.85,3.81-4.64,6.56-6.36-1.89Q350.29,368,352.37,363.79Z" style="fill: rgb(255, 255, 255); opacity: 0.8; transform-origin: 353.72px 368.975px;" class="animable"></path></g><g id="el5rv7vfy25b"><path d="M347.29,379l3.32,3.67,3.18.94c-.69-1.9-1.37-3.79-2.06-5.68Z" style="fill: rgb(255, 255, 255); opacity: 0.7; transform-origin: 350.54px 380.77px;" class="animable"></path></g><g id="eljs4jr3531s"><path d="M353.79,383.62l1.58-2L353.66,377l-1.93,1C352.42,379.83,353.1,381.72,353.79,383.62Z" style="fill: rgb(255, 255, 255); opacity: 0.5; transform-origin: 353.55px 380.31px;" class="animable"></path></g><g id="el27w544quexc"><path d="M353.66,377l-5.44-4.71,3.51,5.67Z" style="fill: rgb(255, 255, 255); opacity: 0.5; transform-origin: 350.94px 375.125px;" class="animable"></path></g><g id="elethsemmz8rd"><path d="M354.58,374.16c.75,1.69,1.49,3.39,2.23,5.08L353.66,377l-5.44-4.71Z" style="fill: rgb(255, 255, 255); opacity: 0.9; transform-origin: 352.515px 375.765px;" class="animable"></path></g><g id="elzputozcmxd"><path d="M356.81,379.24l7.56-2.9-2.72-6.72.39-3.3-2.82,1.28-4.64,6.56C355.33,375.85,356.07,377.55,356.81,379.24Z" style="fill: rgb(255, 255, 255); opacity: 0.8; transform-origin: 359.475px 372.78px;" class="animable"></path></g><path d="M345.54,361.45l3-2.3,4.59-2.15,4.52,5.64-5.31,1.15c-.93-.4-1.93-.79-3-1.17Q347.35,361.92,345.54,361.45Z" style="fill: rgb(255, 255, 255); transform-origin: 351.595px 360.395px;" id="elnxrk46fvbu" class="animable"></path><g id="elmftps05q1lf"><path d="M357.68,362.64l4.36,3.68-2.86,1.29-6.81-3.82Z" style="fill: rgb(255, 255, 255); opacity: 0.9; transform-origin: 357.205px 365.125px;" class="animable"></path></g><g id="el5eg28qucen"><path d="M355.37,381.66l5.46,3.5c-.42-1.3-.83-2.61-1.24-3.91L353.66,377Z" style="fill: rgb(255, 255, 255); opacity: 0.9; transform-origin: 357.245px 381.08px;" class="animable"></path></g><g id="elpro0lx6d08i"><path d="M360.83,385.16l3.15-6.54.39-2.28-7.56,2.9,2.78,2C360,382.55,360.41,383.86,360.83,385.16Z" style="fill: rgb(255, 255, 255); opacity: 0.8; transform-origin: 360.59px 380.75px;" class="animable"></path></g><g id="elj6wzy9ybtcm"><path d="M339.82,370.55l-1.83.83,2.48,2.37,4.12,10.43,2.7-5.17Z" style="fill: rgb(255, 255, 255); opacity: 0.7; transform-origin: 342.64px 377.365px;" class="animable"></path></g><g id="elq7doo3q41cp"><path d="M344.59,384.18l3.78,1.06,5.42-1.62-3.18-.94L347.29,379Z" style="fill: rgb(255, 255, 255); opacity: 0.5; transform-origin: 349.19px 382.12px;" class="animable"></path></g><g id="elrob14eibn4i"><path d="M338,371.38a12.06,12.06,0,0,0-1.37,2.79,12.56,12.56,0,0,0-.65,3.5l7.12,2.67c-.87-2.2-1.75-4.39-2.62-6.59Z" style="fill: rgb(255, 255, 255); opacity: 0.9; transform-origin: 339.54px 375.86px;" class="animable"></path></g><path d="M402.27,370.1l7.42,5.84a49.15,49.15,0,0,0,4.23-7.2,50.62,50.62,0,0,0,2.17-5.39l-4.25-1c-.42.58-.83,1.16-1.25,1.73l-4.87-1.78c-.32,1.38-.63,2.77-.94,4.15Z" style="fill: rgb(38, 50, 56); transform-origin: 409.18px 369.12px;" id="elfctlw3ji8xe" class="animable"></path><path d="M411.84,362.31l-3.2,1,1.95.71C411,363.47,411.42,362.89,411.84,362.31Z" style="fill: rgb(38, 50, 56); transform-origin: 410.24px 363.165px;" id="elwxau8oqhx8" class="animable"></path><path d="M405.72,362.26l-9.85,5.52,6.4,2.32,2.51-3.69C405.09,365,405.4,363.64,405.72,362.26Z" style="fill: rgb(38, 50, 56); transform-origin: 400.795px 366.18px;" id="elc72sdj0atz" class="animable"></path><path d="M395.87,367.78l.12,4.57,6.28-2.25Z" style="fill: rgb(38, 50, 56); transform-origin: 399.07px 370.065px;" id="elnry1dk6cix" class="animable"></path><path d="M409.69,375.94l-5.17,5.9-5.43-5.91,3.18-5.83Z" style="fill: rgb(38, 50, 56); transform-origin: 404.39px 375.97px;" id="el2wjw0e7k644" class="animable"></path><path d="M395.87,367.78l-4.28,2.48c-.53,1-1.06,1.94-1.58,2.91l6-.82Z" style="fill: rgb(38, 50, 56); transform-origin: 393.01px 370.475px;" id="elxx1op5eblrl" class="animable"></path><path d="M390,373.17l1.58,2,4.93-.69c-.18-.7-.35-1.4-.53-2.09Z" style="fill: rgb(38, 50, 56); transform-origin: 393.255px 373.78px;" id="el9anjwk94e5f" class="animable"></path><path d="M396.52,374.44l5.75-4.34L396,372.35C396.17,373,396.34,373.74,396.52,374.44Z" style="fill: rgb(38, 50, 56); transform-origin: 399.135px 372.27px;" id="elfmkmi0xh2ai" class="animable"></path><path d="M399.09,375.93l-5.44,1.12,2.87-2.61,5.75-4.34Z" style="fill: rgb(38, 50, 56); transform-origin: 397.96px 373.575px;" id="elpvdsr0eh36" class="animable"></path><path d="M393.65,377.05c.42,2.66.83,5.33,1.25,8l7.14-1.25,3.14,1.08-.66-3-5.43-5.91Z" style="fill: rgb(38, 50, 56); transform-origin: 399.415px 380.51px;" id="eltna5a83r0hs" class="animable"></path><path d="M413.41,369.76,415,373.2l1.14,4.94-6.46,3.24c0-1.81,0-3.63,0-5.44q.88-1.23,1.77-2.67C412.2,372.05,412.85,370.87,413.41,369.76Z" style="fill: rgb(38, 50, 56); transform-origin: 412.91px 375.57px;" id="el23y2p26j4gv" class="animable"></path><path d="M409.7,381.38l-4.52,3.49-.66-3.07,5.17-5.86C409.69,377.75,409.69,379.57,409.7,381.38Z" style="fill: rgb(38, 50, 56); transform-origin: 407.11px 380.405px;" id="el2exb7yvfbrl" class="animable"></path><path d="M391.59,375.13l-4.57,4.6,4.08-.4,5.42-4.89Z" style="fill: rgb(38, 50, 56); transform-origin: 391.77px 377.085px;" id="eluoqmkywx6t" class="animable"></path><path d="M387,379.73l5.73,4.46,2.15.85c-.42-2.66-.83-5.33-1.25-8l-2.55,2.28Z" style="fill: rgb(38, 50, 56); transform-origin: 390.94px 381.04px;" id="el5ajfi4yhyh8" class="animable"></path><path d="M405.72,362.26c-.15-.66-.29-1.32-.43-2l-2.84,1.92-11.07,1.84,4.49,3.73Z" style="fill: rgb(38, 50, 56); transform-origin: 398.55px 364.005px;" id="elswyz21fxc7" class="animable"></path><path d="M391.38,364.05l-1.82,3.48.45,5.64c.52-1,1.05-1.94,1.58-2.91l4.28-2.48Z" style="fill: rgb(38, 50, 56); transform-origin: 392.715px 368.61px;" id="eljafvk5qrok" class="animable"></path><path d="M405.29,360.29a12.43,12.43,0,0,0-5.73-3.29l-4.11,6.4,7-1.19Z" style="fill: rgb(38, 50, 56); transform-origin: 400.37px 360.2px;" id="el0o3s32kefshd" class="animable"></path><g id="else2du3z0bci"><path d="M402.27,370.1l7.42,5.84a49.15,49.15,0,0,0,4.23-7.2,50.62,50.62,0,0,0,2.17-5.39l-4.25-1c-.42.58-.83,1.16-1.25,1.73l-4.87-1.78c-.32,1.38-.63,2.77-.94,4.15Z" style="fill: rgb(255, 255, 255); opacity: 0.9; transform-origin: 409.18px 369.12px;" class="animable"></path></g><g id="el0efx9u5gvdfq"><path d="M411.84,362.31l-3.2,1,1.95.71C411,363.47,411.42,362.89,411.84,362.31Z" style="fill: rgb(255, 255, 255); opacity: 0.9; transform-origin: 410.24px 363.165px;" class="animable"></path></g><g id="eldjepzrjmj4"><path d="M405.72,362.26l-9.85,5.52,6.4,2.32,2.51-3.69C405.09,365,405.4,363.64,405.72,362.26Z" style="fill: rgb(255, 255, 255); opacity: 0.8; transform-origin: 400.795px 366.18px;" class="animable"></path></g><g id="eluryn30oapsa"><path d="M395.87,367.78l.12,4.57,6.28-2.25Z" style="fill: rgb(255, 255, 255); opacity: 0.8; transform-origin: 399.07px 370.065px;" class="animable"></path></g><g id="eldj3u6s7503i"><path d="M409.69,375.94l-5.17,5.9-5.43-5.91,3.18-5.83Z" style="fill: rgb(255, 255, 255); opacity: 0.8; transform-origin: 404.39px 375.97px;" class="animable"></path></g><g id="el9gj3cvxoq6o"><path d="M395.87,367.78l-4.28,2.48c-.53,1-1.06,1.94-1.58,2.91l6-.82Z" style="fill: rgb(255, 255, 255); opacity: 0.7; transform-origin: 393.01px 370.475px;" class="animable"></path></g><g id="elep4l3lf61h"><path d="M390,373.17l1.58,2,4.93-.69c-.18-.7-.35-1.4-.53-2.09Z" style="fill: rgb(255, 255, 255); opacity: 0.5; transform-origin: 393.255px 373.78px;" class="animable"></path></g><g id="elm29jjjle87d"><path d="M396.52,374.44l5.75-4.34L396,372.35C396.17,373,396.34,373.74,396.52,374.44Z" style="fill: rgb(255, 255, 255); opacity: 0.5; transform-origin: 399.135px 372.27px;" class="animable"></path></g><g id="eljw7hzvocm"><path d="M399.09,375.93l-5.44,1.12,2.87-2.61,5.75-4.34Z" style="fill: rgb(255, 255, 255); opacity: 0.9; transform-origin: 397.96px 373.575px;" class="animable"></path></g><g id="elig2wf4ctke"><path d="M393.65,377.05c.42,2.66.83,5.33,1.25,8l7.14-1.25,3.14,1.08-.66-3-5.43-5.91Z" style="fill: rgb(255, 255, 255); opacity: 0.7; transform-origin: 399.415px 380.51px;" class="animable"></path></g><g id="elw925qkf1u2l"><path d="M413.41,369.76,415,373.2l1.14,4.94-6.46,3.24c0-1.81,0-3.63,0-5.44q.88-1.23,1.77-2.67C412.2,372.05,412.85,370.87,413.41,369.76Z" style="fill: rgb(255, 255, 255); opacity: 0.7; transform-origin: 412.91px 375.57px;" class="animable"></path></g><g id="elzmji8yrq4v"><path d="M409.7,381.38l-4.52,3.49-.66-3.07c1.73-1.95,3.45-3.91,5.17-5.86C409.69,377.75,409.69,379.57,409.7,381.38Z" style="fill: rgb(255, 255, 255); opacity: 0.5; transform-origin: 407.11px 380.405px;" class="animable"></path></g><g id="elp3yqhfpajn"><path d="M391.59,375.13l-4.57,4.6,4.08-.4,5.42-4.89Z" style="fill: rgb(255, 255, 255); opacity: 0.9; transform-origin: 391.77px 377.085px;" class="animable"></path></g><g id="elzts690absy"><path d="M387,379.73l5.73,4.46,2.15.85c-.42-2.66-.83-5.33-1.25-8l-2.55,2.28Z" style="fill: rgb(255, 255, 255); opacity: 0.7; transform-origin: 390.94px 381.04px;" class="animable"></path></g><g id="elulr6s83y6dd"><path d="M405.72,362.26c-.15-.66-.29-1.32-.43-2l-2.84,1.92-11.07,1.84,4.49,3.73Z" style="fill: rgb(255, 255, 255); opacity: 0.9; transform-origin: 398.55px 364.005px;" class="animable"></path></g><g id="elopw8hpwowki"><path d="M391.38,364.05l-1.82,3.48.45,5.64c.52-1,1.05-1.94,1.58-2.91l4.28-2.48Z" style="fill: rgb(255, 255, 255); opacity: 0.9; transform-origin: 392.715px 368.61px;" class="animable"></path></g><path d="M405.29,360.29a12.43,12.43,0,0,0-5.73-3.29l-4.11,6.4,7-1.19Z" style="fill: rgb(255, 255, 255); transform-origin: 400.37px 360.2px;" id="elvq7kbibhd6h" class="animable"></path></g></g><g id="freepik--Device--inject-264" class="animable" style="transform-origin: 202.298px 347.005px;"><path d="M234,384.91l44.43,0a.57.57,0,0,0,.55-.69q-.68-3.12-1.37-6.22a.57.57,0,0,0-.55-.45l-47.5,0a.58.58,0,0,0-.47.91l4.45,6.21A.57.57,0,0,0,234,384.91Z" style="fill: rgb(64, 123, 255); transform-origin: 253.99px 381.23px;" id="elnu6u7zfnztl" class="animable"></path><g id="elhasilccwk6r"><path d="M234,384.91l44.44,0a.55.55,0,0,0,.54-.68c-.46-2.09-.93-4.17-1.4-6.26a.58.58,0,0,0-.55-.44H229.5a.56.56,0,0,0-.45.89l4.46,6.24A.56.56,0,0,0,234,384.91Z" style="opacity: 0.2; transform-origin: 253.969px 381.22px;" class="animable"></path></g><path d="M214.24,308.91H130.51a3,3,0,0,0-1.28.29l-3.63,1.74q10.32,37,20.65,73.93l83.84.22,4.7-.18c-6.5-25-12.7-50-19.19-75A1.4,1.4,0,0,0,214.24,308.91Z" style="fill: rgb(64, 123, 255); transform-origin: 180.195px 347px;" id="eluoad6btdy89" class="animable"></path><g id="elzlbdt3mfsbs"><path d="M230.09,385.09l-83.84-.22q-10.33-37-20.65-73.93h85.49Z" style="opacity: 0.2; transform-origin: 177.845px 348.015px;" class="animable"></path></g><g id="el6ijwuyzu6rm"><path d="M129,309.32l-3.38,1.62h85.49l3.4-1.63a.21.21,0,0,0-.1-.4h-83.6A4.17,4.17,0,0,0,129,309.32Z" style="fill: rgb(255, 255, 255); opacity: 0.2; transform-origin: 170.126px 309.925px;" class="animable"></path></g><path d="M182,345a8.6,8.6,0,1,1-9.36-7.76A8.59,8.59,0,0,1,182,345Z" style="fill: rgb(64, 123, 255); transform-origin: 173.438px 345.802px;" id="eltj63v6pmp7" class="animable"></path><g id="el506ud3gvb5h"><path d="M215.59,309.92l19.2,75-4.7.18-19-74.15,3.3-1.58A.86.86,0,0,1,215.59,309.92Z" style="opacity: 0.4; transform-origin: 222.94px 347.193px;" class="animable"></path></g></g><defs>     <filter id="active" height="200%">         <feMorphology in="SourceAlpha" result="DILATED" operator="dilate" radius="2"></feMorphology>                <feFlood flood-color="#32DFEC" flood-opacity="1" result="PINK"></feFlood>        <feComposite in="PINK" in2="DILATED" operator="in" result="OUTLINE"></feComposite>        <feMerge>            <feMergeNode in="OUTLINE"></feMergeNode>            <feMergeNode in="SourceGraphic"></feMergeNode>        </feMerge>    </filter>    <filter id="hover" height="200%">        <feMorphology in="SourceAlpha" result="DILATED" operator="dilate" radius="2"></feMorphology>                <feFlood flood-color="#ff0000" flood-opacity="0.5" result="PINK"></feFlood>        <feComposite in="PINK" in2="DILATED" operator="in" result="OUTLINE"></feComposite>        <feMerge>            <feMergeNode in="OUTLINE"></feMergeNode>            <feMergeNode in="SourceGraphic"></feMergeNode>        </feMerge>            <feColorMatrix type="matrix" values="0   0   0   0   0                0   1   0   0   0                0   0   0   0   0                0   0   0   1   0 "></feColorMatrix>    </filter></defs></svg>
